#!OML:ASF X:\für Bonn\!DataBase\2005_08_12_Daniel\c3d\Daniel.ASF
:FULLY-SPECIFIED
:DEGREES
31
root 16.7382 15.8725 15.1886 706.505 -132.38 -2.91149
lowerback 38.4642 3.7467 -0.665523
upperback 10.4884 1.48011 -4.4814
thorax -7.11587 -0.226708 -4.86031
lowerneck -3.978 0.954628 -3.95119
upperneck 8.1475 1.50521 -0.424091
head 3.29288 0.568414 0.609454
rclavicle -1.59028e-015 6.2816e-014
rhumerus -35.9238 -3.67722 -80.1625
rradius 75.2756
rwrist 12.0577
rhand -34.191 8.332
rfingers 7.12502
rthumb -7.36395 -21.5198
lclavicle -1.59028e-015 6.2816e-014
lhumerus 142.225 151.603 246.208
lradius 76.9264
lwrist -25.9796
lhand -28.0798 7.68514
lfingers 7.12502
lthumb -1.46294 37.6599
rfemur 3.45918 -2.2498 22.4711
rtibia 56.1046
rfoot -33.4199 4.18186
rtoes -5.80819
lfemur -30.5283 -11.5031 -18.6011
ltibia 33.9502
lfoot -19.2591 0.626873
ltoes -13.1943
32
root 16.6454 15.8474 15.1129 706.462 -132.396 -2.79029
lowerback 38.396 3.81379 -0.634097
upperback 10.4714 1.57942 -4.52398
thorax -7.10338 -0.175872 -4.95998
lowerneck -4.09581 0.918501 -4.02357
upperneck 8.13823 1.46467 -0.356798
head 3.31254 0.549597 0.643674
rclavicle -3.1408e-014 4.29375e-014
rhumerus -35.854 -3.67618 -80.2558
rradius 75.2519
rwrist 12.2277
rhand -34.312 8.14501
rfingers 7.12502
rthumb -7.48076 -21.7027
lclavicle -3.1408e-014 4.29375e-014
lhumerus 141.925 151.493 245.986
lradius 76.9684
lwrist -25.9523
lhand -28.018 7.81921
lfingers 7.12502
lthumb -1.40327 37.7943
rfemur 3.85894 -2.32739 22.4689
rtibia 56.1431
rfoot -33.5631 4.33717
rtoes -5.80273
lfemur -30.5168 -11.5586 -18.3841
ltibia 33.6663
lfoot -19.2926 0.909848
ltoes -13.8062
33
root 16.5509 15.8209 15.039 706.459 -132.382 -2.70777
lowerback 38.3462 3.86895 -0.575046
upperback 10.4616 1.6653 -4.61176
thorax -7.08887 -0.131263 -5.11762
lowerneck -4.12258 0.864843 -3.97102
upperneck 7.98545 1.39103 -0.33309
head 3.26646 0.52044 0.638618
rclavicle -1.19271e-015 -6.67916e-014
rhumerus -35.8566 -3.73332 -80.3942
rradius 75.2907
rwrist 12.3661
rhand -34.3795 8.06281
rfingers 7.12502
rthumb -7.54588 -21.7826
lclavicle -1.19271e-015 -6.67916e-014
lhumerus 141.709 151.483 245.748
lradius 76.9657
lwrist -26.027
lhand -27.9872 7.91566
lfingers 7.12502
lthumb -1.37358 37.891
rfemur 4.26393 -2.47457 22.4015
rtibia 56.174
rfoot -33.6921 4.47059
rtoes -5.90933
lfemur -30.5127 -11.56 -18.259
ltibia 33.5114
lfoot -19.1475 1.10843
ltoes -14.2391
34
root 16.4569 15.7956 14.9644 706.436 -132.345 -2.59665
lowerback 38.3369 3.91317 -0.522802
upperback 10.4323 1.73939 -4.66899
thorax -7.11036 -0.0922365 -5.23559
lowerneck -4.04473 0.838102 -4.05285
upperneck 7.83821 1.35062 -0.240891
head 3.20099 0.50553 0.679725
rclavicle 2.18663e-014 -2.46493e-014
rhumerus -35.8472 -3.82662 -80.5314
rradius 75.3097
rwrist 12.5416
rhand -34.4217 7.74952
rfingers 7.12502
rthumb -7.58662 -22.0944
lclavicle 2.18663e-014 -2.46493e-014
lhumerus 141.494 151.359 245.515
lradius 76.9089
lwrist -26.2802
lhand -27.893 7.80603
lfingers 7.12502
lthumb -1.28254 37.7819
rfemur 4.65992 -2.62088 22.3536
rtibia 56.1955
rfoot -33.7997 4.63079
rtoes -5.91703
lfemur -30.557 -11.4403 -18.1628
ltibia 33.4998
lfoot -18.8254 1.10391
ltoes -14.1924
35
root 16.3603 15.7718 14.8887 706.427 -132.348 -2.46162
lowerback 38.3104 3.96267 -0.459701
upperback 10.3974 1.82282 -4.7474
thorax -7.13084 -0.0480692 -5.38549
lowerneck -3.92059 0.797672 -3.99789
upperneck 7.60369 1.28749 -0.243095
head 3.09825 0.481916 0.664246
rclavicle 3.29983e-014 -1.66979e-014
rhumerus -35.8541 -3.89623 -80.7108
rradius 75.3304
rwrist 12.5702
rhand -34.3715 7.67001
rfingers 7.12502
rthumb -7.5382 -22.1757
lclavicle 3.29983e-014 -1.66979e-014
lhumerus 141.273 151.322 245.192
lradius 76.8323
lwrist -26.4503
lhand -27.8563 7.7228
lfingers 7.12502
lthumb -1.24708 37.6989
rfemur 5.04081 -2.73092 22.3386
rtibia 56.2009
rfoot -33.8844 4.75292
rtoes -6.02702
lfemur -30.646 -11.2477 -18.0714
ltibia 33.6281
lfoot -18.3171 1.06108
ltoes -14.7359
36
root 16.2638 15.7508 14.8141 706.436 -132.319 -2.36269
lowerback 38.3303 4.00287 -0.408595
upperback 10.3681 1.88605 -4.81696
thorax -7.16239 -0.0151691 -5.51268
lowerneck -3.80153 0.769238 -4.03764
upperneck 7.36345 1.24351 -0.198095
head 2.99422 0.466717 0.68146
rclavicle -3.57812e-014 9.85972e-014
rhumerus -35.8348 -3.98812 -80.8926
rradius 75.3555
rwrist 12.6267
rhand -34.2895 7.55697
rfingers 7.12502
rthumb -7.45896 -22.2915
lclavicle -3.57812e-014 9.85972e-014
lhumerus 141.099 151.262 244.926
lradius 76.663
lwrist -26.617
lhand -27.9912 7.52872
lfingers 7.12502
lthumb -1.37743 37.504
rfemur 5.45742 -2.85071 22.2779
rtibia 56.1617
rfoot -33.9586 4.94157
rtoes -5.867
lfemur -30.7779 -10.9755 -18.0637
ltibia 33.901
lfoot -17.6056 0.965719
ltoes -15.7068
37
root 16.1648 15.7343 14.7381 706.511 -132.303 -2.28379
lowerback 38.2843 4.04842 -0.388448
upperback 10.356 1.94603 -4.89362
thorax -7.15376 0.0165472 -5.62831
lowerneck -3.69936 0.736315 -4.02465
upperneck 7.08994 1.19603 -0.224012
head 2.88302 0.44937 0.666342
rclavicle -9.54166e-015 -4.77083e-014
rhumerus -35.7776 -4.07672 -81.0572
rradius 75.354
rwrist 12.6698
rhand -34.1606 7.39336
rfingers 7.12502
rthumb -7.33456 -22.4595
lclavicle -9.54166e-015 -4.77083e-014
lhumerus 140.978 151.131 244.639
lradius 76.4761
lwrist -26.7822
lhand -27.9552 7.23764
lfingers 7.12502
lthumb -1.34262 37.2132
rfemur 5.83401 -2.95078 22.2029
rtibia 56.1076
rfoot -34.0015 5.09786
rtoes -6.03037
lfemur -30.9974 -10.7005 -18.0624
ltibia 34.2985
lfoot -16.8772 0.857505
ltoes -16.7718
38
root 16.0663 15.7188 14.6631 706.555 -132.22 -2.20474
lowerback 38.331 4.07717 -0.373175
upperback 10.325 1.98162 -4.94951
thorax -7.19931 0.0354947 -5.71216
lowerneck -3.59089 0.711386 -4.05376
upperneck 6.85665 1.15872 -0.216158
head 2.78437 0.435992 0.670136
rclavicle -8.5875e-014 -1.59028e-015
rhumerus -35.7852 -4.22768 -81.2066
rradius 75.3939
rwrist 12.732
rhand -33.9659 7.38977
rfingers 7.12502
rthumb -7.14664 -22.4696
lclavicle -8.5875e-014 -1.59028e-015
lhumerus 140.854 150.953 244.414
lradius 76.2486
lwrist -27.1243
lhand -28.005 6.95488
lfingers 7.12502
lthumb -1.39077 36.9301
rfemur 6.26095 -3.08188 22.1292
rtibia 56.0158
rfoot -34.0526 5.20496
rtoes -6.11209
lfemur -31.2124 -10.3041 -18.1537
ltibia 34.7987
lfoot -16.0435 0.715632
ltoes -17.6893
